{"asset":{"version":"2.0","generator":"KMTI-AI-2D-Checker ThreeDPipeline"},"scene":0,"scenes":[{"nodes":[0]}],"nodes":[{"mesh":0}],"meshes":[{"name":"170c62e6da34b1d9e490438249b0df42ca7a42dd5cbd51f138f44e48e26c5f7b.stp","primitives":[{"attributes":{"POSITION":0},"indices":1,"material":0,"mode":4}]}],"accessors":[{"bufferView":0,"byteOffset":0,"componentType":5126,"count":10086,"type":"VEC3","min":[-1.0,-0.897902,-0.981612],"max":[1.0,0.897902,0.981612]},{"bufferView":1,"byteOffset":0,"componentType":5125,"count":10086,"type":"SCALAR"}],"bufferViews":[{"buffer":0,"byteOffset":0,"byteLength":121032,"target":34962},{"buffer":0,"byteOffset":121032,"byteLength":40344,"target":34963}],"materials":[{"name":"mat_r255_g255_b255","pbrMetallicRoughness":{"baseColorFactor":[1.0,1.0,1.0,1.0],"metallicFactor":0.35,"roughnessFactor":0.4},"doubleSided":true}],"buffers":[{"byteLength":161376,"uri":"data:application/octet-stream;base64,"}]}